<svg viewBox="293 -7 553 495" width="553" height="495" fill="#56F09F"><path d=" M313 233 L403 233 C403 233, 413 233, 413 243 L413 304 C413 304, 413 314, 423 314 L452 314 C452 314, 462 314, 462 324 L462 358 C462 358, 462 368, 472 368 L520 368 C520 368, 530 368, 530 378 L530 468 C530 468, 530 478, 520 478 L430 478 C430 478, 420 478, 420 468 L420 434 C420 434, 420 424, 410 424 L362 424 C362 424, 352 424, 352 414 L352 353 C352 353, 352 343, 342 343 L313 343 C313 343, 303 343, 303 333 L303 243 C303 243, 303 233, 313 233"></path>
<path d=" M437.131134 186.996845 L527.131134 186.996845 C527.131134 186.996845, 537.131134 186.996845, 537.131134 196.996845 L537.131134 232 C537.131134 232, 537.131134 242, 547.131134 242 L578 242 C578 242, 588 242, 588 252 L588 289 C588 289, 588 299, 598 299 L639 299 C639 299, 649 299, 649 309 L649 399 C649 399, 649 409, 639 409 L549 409 C549 409, 539 409, 539 399 L539 362 C539 362, 539 352, 529 352 L488 352 C488 352, 478 352, 478 342 L478 306.996845 C478 306.996845, 478 296.996845, 468 296.996845 L437.131134 296.996845 C437.131134 296.996845, 427.131134 296.996845, 427.131134 286.996845 L427.131134 196.996845 C427.131134 196.996845, 427.131134 186.996845, 437.131134 186.996845"></path>
<path d=" M560 122 L650 122 C650 122, 660 122, 660 132 L660 166 C660 166, 660 176, 670 176 L702 176 C702 176, 712 176, 712 186 L712 276 C712 276, 712 286, 702 286 L612 286 C612 286, 602 286, 602 276 L602 242 C602 242, 602 232, 592 232 L560 232 C560 232, 550 232, 550 222 L550 132 C550 132, 550 122, 560 122"></path>
<path d=" M581 3 L671 3 C671 3, 681 3, 681 13 L681 43 C681 43, 681 53, 691 53 L773 53 C773 53, 783 53, 783 63 L783 144 C783 144, 783 154, 793 154 L826 154 C826 154, 836 154, 836 164 L836 254 C836 254, 836 264, 826 264 L736 264 C736 264, 726 264, 726 254 L726 173 C726 173, 726 163, 716 163 L683 163 C683 163, 673 163, 673 153 L673 123 C673 123, 673 113, 663 113 L581 113 C581 113, 571 113, 571 103 L571 13 C571 13, 571 3, 581 3"></path></svg>