<svg viewBox="442.000112 195 233.999888 367" width="233.999888" height="367" fill="#56F09F"><path d=" M462.000112 319.980722 L462.000112 319.980722 C462.000112 319.980722, 472.000112 319.980722, 472.000112 329.980722 L472.000112 329.980722 C472.000112 329.980722, 472.000112 339.980722, 462.000112 339.980722 L462.000112 339.980722 C462.000112 339.980722, 452.000112 339.980722, 452.000112 329.980722 L452.000112 329.980722 C452.000112 329.980722, 452.000112 319.980722, 462.000112 319.980722"></path>
<path d=" M488 205 L488 205 C488 205, 498 205, 498 215 L498 215 C498 215, 498 225, 488 225 L488 225 C488 225, 478 225, 478 215 L478 215 C478 215, 478 205, 488 205"></path>
<path d=" M488 230 L488 230 C488 230, 498 230, 498 240 L498 420 C498 420, 498 430, 488 430 L488 430 C488 430, 478 430, 478 420 L478 240 C478 240, 478 230, 488 230"></path>
<path d=" M521 269 L521 269 C521 269, 531 269, 531 279 L531 459 C531 459, 531 469, 521 469 L521 469 C521 469, 511 469, 511 459 L511 279 C511 279, 511 269, 521 269"></path>
<path d=" M521 474 L521 474 C521 474, 531 474, 531 484 L531 484 C531 484, 531 494, 521 494 L521 494 C521 494, 511 494, 511 484 L511 484 C511 484, 511 474, 521 474"></path>
<path d=" M556 270 L556 270 C556 270, 566 270, 566 280 L566 280 C566 280, 566 290, 556 290 L556 290 C556 290, 546 290, 546 280 L546 280 C546 280, 546 270, 556 270"></path>
<path d=" M556 296 L556 296 C556 296, 566 296, 566 306 L566 486 C566 486, 566 496, 556 496 L556 496 C556 496, 546 496, 546 486 L546 306 C546 306, 546 296, 556 296"></path>
<path d=" M591 532 L591 532 C591 532, 601 532, 601 542 L601 542 C601 542, 601 552, 591 552 L591 552 C591 552, 581 552, 581 542 L581 542 C581 542, 581 532, 591 532"></path>
<path d=" M592 326 L592 326 C592 326, 602 326, 602 336 L602 516 C602 516, 602 526, 592 526 L592 526 C592 526, 582 526, 582 516 L582 336 C582 336, 582 326, 592 326"></path>
<path d=" M626 322 L626 322 C626 322, 636 322, 636 332 L636 332 C636 332, 636 342, 626 342 L626 342 C626 342, 616 342, 616 332 L616 332 C616 332, 616 322, 626 322"></path>
<path d=" M626 349 L626 349 C626 349, 636 349, 636 359 L636 539 C636 539, 636 549, 626 549 L626 549 C626 549, 616 549, 616 539 L616 359 C616 359, 616 349, 626 349"></path>
<path d=" M656 432 L656 432 C656 432, 666 432, 666 442 L666 442 C666 442, 666 452, 656 452 L656 452 C656 452, 646 452, 646 442 L646 442 C646 442, 646 432, 656 432"></path></svg>