<svg viewBox="455 160.83 217 270.3399999999999" width="217" height="270.3399999999999" fill="#56F09F"><path d=" M475 258.83 L475 258.83 C475 258.83, 485 258.83, 485 268.83 L485 361.16999999999996 C485 361.16999999999996, 485 371.16999999999996, 475 371.16999999999996 L475 371.16999999999996 C475 371.16999999999996, 465 371.16999999999996, 465 361.16999999999996 L465 268.83 C465 268.83, 465 258.83, 475 258.83"></path>
<path d=" M504.309754 285.773301 L504.309754 285.773301 C504.309754 285.773301, 514.309754 285.773301, 514.309754 295.773301 L514.309754 388.113301 C514.309754 388.113301, 514.309754 398.113301, 504.309754 398.113301 L504.309754 398.113301 C504.309754 398.113301, 494.309754 398.113301, 494.309754 388.113301 L494.309754 295.773301 C494.309754 295.773301, 494.309754 285.773301, 504.309754 285.773301"></path>
<path d=" M535 236.83 L535 236.83 C535 236.83, 545 236.83, 545 246.83 L545 339.17 C545 339.17, 545 349.17, 535 349.17 L535 349.17 C535 349.17, 525 349.17, 525 339.17 L525 246.83 C525 246.83, 525 236.83, 535 236.83"></path>
<path d=" M563 170.83 L563 170.83 C563 170.83, 573 170.83, 573 180.83 L573 273.17 C573 273.17, 573 283.17, 563 283.17 L563 283.17 C563 283.17, 553 283.17, 553 273.17 L553 180.83 C553 180.83, 553 170.83, 563 170.83"></path>
<path d=" M564 308.83 L564 308.83 C564 308.83, 574 308.83, 574 318.83 L574 411.16999999999996 C574 411.16999999999996, 574 421.16999999999996, 564 421.16999999999996 L564 421.16999999999996 C564 421.16999999999996, 554 421.16999999999996, 554 411.16999999999996 L554 318.83 C554 318.83, 554 308.83, 564 308.83"></path>
<path d=" M594 235.83 L594 235.83 C594 235.83, 604 235.83, 604 245.83 L604 338.17 C604 338.17, 604 348.17, 594 348.17 L594 348.17 C594 348.17, 584 348.17, 584 338.17 L584 245.83 C584 245.83, 584 235.83, 594 235.83"></path>
<path d=" M622 291.83 L622 291.83 C622 291.83, 632 291.83, 632 301.83 L632 394.16999999999996 C632 394.16999999999996, 632 404.16999999999996, 622 404.16999999999996 L622 404.16999999999996 C622 404.16999999999996, 612 404.16999999999996, 612 394.16999999999996 L612 301.83 C612 301.83, 612 291.83, 622 291.83"></path>
<path d=" M652 256.83 L652 256.83 C652 256.83, 662 256.83, 662 266.83 L662 359.16999999999996 C662 359.16999999999996, 662 369.16999999999996, 652 369.16999999999996 L652 369.16999999999996 C652 369.16999999999996, 642 369.16999999999996, 642 359.16999999999996 L642 266.83 C642 266.83, 642 256.83, 652 256.83"></path></svg>